HIERARCHY
ROOT hip
{
  OFFSET -0.00509931 96.4334 -1.50866
  CHANNELS 6 Xposition Yposition Zposition Zrotation Xrotation Yrotation
  JOINT abdomen
  {
    OFFSET 0 7.2397 0
    CHANNELS 6 Xposition Yposition Zposition Zrotation Xrotation Yrotation
    JOINT chest
    {
      OFFSET 0 16.546 0
      CHANNELS 6 Xposition Yposition Zposition Zrotation Xrotation Yrotation
      JOINT neck
      {
        OFFSET 0 34.2149 0
        CHANNELS 6 Xposition Yposition Zposition Zrotation Xrotation Yrotation
        JOINT head
        {
          OFFSET 0 6.2923 0
          CHANNELS 6 Xposition Yposition Zposition Zrotation Xrotation Yrotation
          End Site
          {
            OFFSET 0 21.2161 0
          }
        }
      }
      JOINT lCollar
      {
        OFFSET 4.0639 26.6115 -1.1234
        CHANNELS 6 Xposition Yposition Zposition Zrotation Xrotation Yrotation
        JOINT lShldr
        {
          OFFSET 14.1772 0 0
          CHANNELS 6 Xposition Yposition Zposition Zrotation Xrotation Yrotation
          JOINT lForeArm
          {
            OFFSET 26.1234 0 0
            CHANNELS 6 Xposition Yposition Zposition Zrotation Xrotation Yrotation
            JOINT lHand
            {
              OFFSET 27.7188 0 0
              CHANNELS 6 Xposition Yposition Zposition Zrotation Xrotation Yrotation
              JOINT lThumb1
              {
                OFFSET 2.2979 -0.4685 1.8313
                CHANNELS 6 Xposition Yposition Zposition Zrotation Xrotation Yrotation
                JOINT lThumb2
                {
                  OFFSET 5.2953 0 0
                  CHANNELS 6 Xposition Yposition Zposition Zrotation Xrotation Yrotation
                  JOINT lThumb3
                  {
                    OFFSET 3.0181 0 0
                    CHANNELS 6 Xposition Yposition Zposition Zrotation Xrotation Yrotation
                    End Site
                    {
                      OFFSET 2.6294 0 0
                    }
                  }
                }
              }
              JOINT lIndex1
              {
                OFFSET 9.3793 0.2991 2.5924
                CHANNELS 6 Xposition Yposition Zposition Zrotation Xrotation Yrotation
                JOINT lIndex2
                {
                  OFFSET 4.3461 0 0
                  CHANNELS 6 Xposition Yposition Zposition Zrotation Xrotation Yrotation
                  JOINT lIndex3
                  {
                    OFFSET 2.1666 0 0
                    CHANNELS 6 Xposition Yposition Zposition Zrotation Xrotation Yrotation
                    End Site
                    {
                      OFFSET 2.2048 0 0
                    }
                  }
                }
              }
              JOINT lMid1
              {
                OFFSET 9.4769 0.8376 0.2947
                CHANNELS 6 Xposition Yposition Zposition Zrotation Xrotation Yrotation
                JOINT lMid2
                {
                  OFFSET 4.772 0 0
                  CHANNELS 6 Xposition Yposition Zposition Zrotation Xrotation Yrotation
                  JOINT lMid3
                  {
                    OFFSET 2.8722 0 0
                    CHANNELS 6 Xposition Yposition Zposition Zrotation Xrotation Yrotation
                    End Site
                    {
                      OFFSET 2.0959 0 0
                    }
                  }
                }
              }
              JOINT lRing1
              {
                OFFSET 8.6586 1.0176 -1.7016
                CHANNELS 6 Xposition Yposition Zposition Zrotation Xrotation Yrotation
                JOINT lRing2
                {
                  OFFSET 4.5461 0 0
                  CHANNELS 6 Xposition Yposition Zposition Zrotation Xrotation Yrotation
                  JOINT lRing3
                  {
                    OFFSET 2.506 0 0
                    CHANNELS 6 Xposition Yposition Zposition Zrotation Xrotation Yrotation
                    End Site
                    {
                      OFFSET 2.2023 0 0
                    }
                  }
                }
              }
              JOINT lPinky1
              {
                OFFSET 7.6901 0.6618 -3.9096
                CHANNELS 6 Xposition Yposition Zposition Zrotation Xrotation Yrotation
                JOINT lPinky2
                {
                  OFFSET 3.2119 0 0
                  CHANNELS 6 Xposition Yposition Zposition Zrotation Xrotation Yrotation
                  JOINT lPinky3
                  {
                    OFFSET 1.924 0 0
                    CHANNELS 6 Xposition Yposition Zposition Zrotation Xrotation Yrotation
                    End Site
                    {
                      OFFSET 1.7829 0 0
                    }
                  }
                }
              }
            }
          }
        }
      }
      JOINT rCollar
      {
        OFFSET -4.0677 26.6109 -1.1234
        CHANNELS 6 Xposition Yposition Zposition Zrotation Xrotation Yrotation
        JOINT rShldr
        {
          OFFSET -14.1772 0 0
          CHANNELS 6 Xposition Yposition Zposition Zrotation Xrotation Yrotation
          JOINT rForeArm
          {
            OFFSET -26.1234 0 0
            CHANNELS 6 Xposition Yposition Zposition Zrotation Xrotation Yrotation
            JOINT rHand
            {
              OFFSET -27.7188 0 0
              CHANNELS 6 Xposition Yposition Zposition Zrotation Xrotation Yrotation
              JOINT rThumb1
              {
                OFFSET -2.2979 -0.4684 1.8313
                CHANNELS 6 Xposition Yposition Zposition Zrotation Xrotation Yrotation
                JOINT rThumb2
                {
                  OFFSET -5.2953 0 0
                  CHANNELS 6 Xposition Yposition Zposition Zrotation Xrotation Yrotation
                  JOINT rThumb3
                  {
                    OFFSET -3.0181 0 0
                    CHANNELS 6 Xposition Yposition Zposition Zrotation Xrotation Yrotation
                    End Site
                    {
                      OFFSET -2.6294 0 0
                    }
                  }
                }
              }
              JOINT rIndex1
              {
                OFFSET -9.3793 0.2991 2.5924
                CHANNELS 6 Xposition Yposition Zposition Zrotation Xrotation Yrotation
                JOINT rIndex2
                {
                  OFFSET -4.3461 0 0
                  CHANNELS 6 Xposition Yposition Zposition Zrotation Xrotation Yrotation
                  JOINT rIndex3
                  {
                    OFFSET -2.1666 0 0
                    CHANNELS 6 Xposition Yposition Zposition Zrotation Xrotation Yrotation
                    End Site
                    {
                      OFFSET -2.2048 0 0
                    }
                  }
                }
              }
              JOINT rMid1
              {
                OFFSET -9.4769 0.8376 0.2947
                CHANNELS 6 Xposition Yposition Zposition Zrotation Xrotation Yrotation
                JOINT rMid2
                {
                  OFFSET -4.772 0 0
                  CHANNELS 6 Xposition Yposition Zposition Zrotation Xrotation Yrotation
                  JOINT rMid3
                  {
                    OFFSET -2.8722 0 0
                    CHANNELS 6 Xposition Yposition Zposition Zrotation Xrotation Yrotation
                    End Site
                    {
                      OFFSET -2.0959 0 0
                    }
                  }
                }
              }
              JOINT rRing1
              {
                OFFSET -8.6586 1.0176 -1.7016
                CHANNELS 6 Xposition Yposition Zposition Zrotation Xrotation Yrotation
                JOINT rRing2
                {
                  OFFSET -4.5461 0 0
                  CHANNELS 6 Xposition Yposition Zposition Zrotation Xrotation Yrotation
                  JOINT rRing3
                  {
                    OFFSET -2.506 0 0
                    CHANNELS 6 Xposition Yposition Zposition Zrotation Xrotation Yrotation
                    End Site
                    {
                      OFFSET -2.2023 0 0
                    }
                  }
                }
              }
              JOINT rPinky1
              {
                OFFSET -7.6901 0.6618 -3.9096
                CHANNELS 6 Xposition Yposition Zposition Zrotation Xrotation Yrotation
                JOINT rPinky2
                {
                  OFFSET -3.2119 0 0
                  CHANNELS 6 Xposition Yposition Zposition Zrotation Xrotation Yrotation
                  JOINT rPinky3
                  {
                    OFFSET -1.924 0 0
                    CHANNELS 6 Xposition Yposition Zposition Zrotation Xrotation Yrotation
                    End Site
                    {
                      OFFSET -1.7829 0 0
                    }
                  }
                }
              }
            }
          }
        }
      }
    }
  }
  JOINT lThigh
  {
    OFFSET 8.7379 -0.0029 0.0005
    CHANNELS 6 Xposition Yposition Zposition Zrotation Xrotation Yrotation
    JOINT lShin
    {
      OFFSET 0 -46.6676 0
      CHANNELS 6 Xposition Yposition Zposition Zrotation Xrotation Yrotation
      JOINT lFoot
      {
        OFFSET 0 -40.1476 0
        CHANNELS 6 Xposition Yposition Zposition Zrotation Xrotation Yrotation
        JOINT lToes
        {
          OFFSET 0 -8.8846 14.2294
          CHANNELS 6 Xposition Yposition Zposition Zrotation Xrotation Yrotation
          End Site
          {
            OFFSET 0 0 6.296
          }
        }
      }
    }
  }
  JOINT rThigh
  {
    OFFSET -8.7379 0.0029 -0.0005
    CHANNELS 6 Xposition Yposition Zposition Zrotation Xrotation Yrotation
    JOINT rShin
    {
      OFFSET 0 -46.6676 0
      CHANNELS 6 Xposition Yposition Zposition Zrotation Xrotation Yrotation
      JOINT rFoot
      {
        OFFSET 0 -40.1476 0
        CHANNELS 6 Xposition Yposition Zposition Zrotation Xrotation Yrotation
        JOINT rToes
        {
          OFFSET 0 -8.8846 14.2294
          CHANNELS 6 Xposition Yposition Zposition Zrotation Xrotation Yrotation
          End Site
          {
            OFFSET 0 0 6.296
          }
        }
      }
    }
  }
}
MOTION
Frames:	4
Frame Time:	0.0333333
-0.00509931 96.4334 -1.50866 1.51302 -5.16911 1.72281 0 7.2397 0 -1.24831 1.23285 -1.38942 0 16.546 -8.88178e-16 -2.24571 4.35121 -2.62004 0 34.2149 0 2.75921 25.8453 1.53152 0 6.2923 1.42109e-14 -0.952563 -18.6152 -2.00423 4.0639 26.6115 -1.1234 2.03197 -4.25194 1.06575 14.1772 0 8.88178e-16 -87.101 21.3974 14.0987 26.1234 -3.55271e-15 0 -0.279341 0.0465675 -18.9267 27.7188 0 -2.22045e-15 -2.24229 -28.1057 5.32954 2.2979 -0.4685 1.8313 77.4345 75.3062 -89.6781 5.2953 -3.55271e-15 -8.88178e-16 -13.655 2.43916 4.23128 3.0181 -8.88178e-16 -4.44089e-15 38.5402 5.09864 3.63092 9.3793 0.2991 2.5924 -7.74521 -1.73213 2.94702 4.3461 1.77636e-15 1.11022e-16 -9.95205 0.0972651 2.05905 2.1666 -1.77636e-15 -4.44089e-16 -12.1192 -0.251091 2.0032 9.4769 0.8376 0.2947 -7.15052 -4.50185 3.17298 4.772 0 0 -31.6886 -2.13649 7.83421 2.8722 0 -3.55271e-15 -19.9275 -0.779748 6.4594 8.6586 1.0176 -1.7016 -15.3291 1.70804 4.48795 4.5461 -1.77636e-15 8.88178e-16 -36.0019 -1.51088 4.64714 2.506 0 -3.55271e-15 -23.0802 -0.577587 4.02645 7.6901 0.6618 -3.9096 -12.9485 -9.4749 4.32013 3.2119 0 0 -35.3326 -3.70581 11.5997 1.924 0 0 -25.0287 -1.82101 9.98808 -4.0677 26.6109 -1.1234 6.18941 -4.1171 1.61908 -14.1772 0 -8.88178e-16 78.0114 2.88409 -12.3356 -26.1234 0 0 0.194609 0.0222792 13.0629 -27.7188 -7.10543e-15 0 -11.6722 -9.32901 3.73194 -2.2979 -0.4684 1.8313 -80.7334 75.7767 111.058 -5.2953 0 1.77636e-15 15.3004 2.21205 -5.46139 -3.0181 1.77636e-15 -3.55271e-15 -10.6114 3.2941 -16.0189 -9.3793 0.2991 2.5924 58.8722 -7.07581 -8.6488 -4.3461 0 0 78.8288 -8.3887 -10.5305 -2.1666 0 0 81.0281 -8.82224 -9.93212 -9.4769 0.8376 0.2947 58.4456 -9.84027 -8.71158 -4.772 7.10543e-15 0 77.7398 -10.7396 -13.4126 -2.8722 0 0 73.8658 -9.75406 -14.4177 -8.6586 1.0176 -1.7016 59.4604 -3.212 -8.59604 -4.5461 0 0 79.8423 -5.51923 -6.59367 -2.506 0 1.77636e-15 73.1039 -4.70674 -7.195 -7.6901 0.6618 -3.9096 57.724 -14.4056 -8.86325 -3.2119 7.10543e-15 -1.77636e-15 75.4266 -14.2018 -18.3035 -1.924 0 3.55271e-15 71.1307 -12.7786 -19.3061 8.7379 -0.0029 0.0005 -0.673655 -1.07358 14.2364 8.88178e-16 -46.6676 -1.77636e-15 1.74384 15.7934 -2.69854 0 -40.1476 -4.44089e-16 0.262614 -9.48833 7.91263 0 -8.8846 14.2294 0.0001 -1.49089e-16 3.18055e-15 -8.7379 0.0029 -0.0005 -7.6226 -3.11224 -24.0692 0 -46.6676 0 -3.24723 17.5686 6.88317 0 -40.1476 4.44089e-16 3.9728 -7.87646 -7.85192 -1.77636e-15 -8.8846 14.2294 -2.48481e-16 0 -0 
-0.0651642 96.4844 -1.33262 1.41266 -5.26166 2.06748 -4.44089e-16 7.2397 8.88178e-16 -1.21631 1.1793 -1.40915 6.93889e-18 16.546 0 -2.21696 4.24421 -2.66094 -8.88178e-16 34.2149 0 2.76463 25.7915 1.65429 -8.88178e-16 6.2923 -1.42109e-14 -0.951562 -18.5941 -1.26714 4.0639 26.6115 -1.1234 2.03855 -4.21543 1.0986 14.1772 0 -1.77636e-15 -86.9547 21.2744 14.3794 26.1234 3.55271e-15 -7.10543e-15 -0.283218 0.0479 -19.2001 27.7188 -3.55271e-15 -4.44089e-16 -2.21718 -28.1166 5.53885 2.2979 -0.4685 1.8313 77.4345 75.3062 -89.6781 5.2953 3.55271e-15 0 -13.655 2.43917 4.23129 3.0181 -8.88178e-16 -8.88178e-16 38.5402 5.09864 3.63094 9.3793 0.2991 2.5924 -7.74519 -1.73213 2.94702 4.3461 3.55271e-15 0 -9.95205 0.0972634 2.05906 2.1666 -8.88178e-16 -1.33227e-15 -12.1191 -0.251089 2.00319 9.4769 0.8376 0.2947 -7.15052 -4.50185 3.17298 4.772 1.77636e-15 4.44089e-16 -31.6887 -2.13649 7.83421 2.8722 0 0 -19.9275 -0.779748 6.4594 8.6586 1.0176 -1.7016 -15.3291 1.70804 4.48795 4.5461 -1.33227e-15 0 -36.0019 -1.51088 4.64715 2.506 7.10543e-15 0 -23.0802 -0.577588 4.02646 7.6901 0.6618 -3.9096 -12.9485 -9.4749 4.32013 3.2119 0 0 -35.3326 -3.70581 11.5997 1.924 -7.10543e-15 0 -25.0287 -1.82101 9.98808 -4.0677 26.6109 -1.1234 6.21035 -4.09191 1.56934 -14.1772 2.84217e-14 0 78.0952 2.78414 -12.6498 -26.1234 0 -3.55271e-15 0.199471 0.0234223 13.394 -27.7188 -7.10543e-15 -8.88178e-16 -11.9706 -9.41819 3.51846 -2.2979 -0.4684 1.8313 -80.7334 75.7767 111.058 -5.2953 7.10543e-15 0 15.3004 2.21205 -5.46139 -3.0181 -3.55271e-15 3.55271e-15 -10.6114 3.2941 -16.0189 -9.3793 0.2991 2.5924 58.8722 -7.07581 -8.6488 -4.3461 0 0 78.8288 -8.3887 -10.5305 -2.1666 0 0 81.0281 -8.82224 -9.93212 -9.4769 0.8376 0.2947 58.4456 -9.84027 -8.71158 -4.772 7.10543e-15 0 77.7398 -10.7396 -13.4126 -2.8722 -2.84217e-14 -1.77636e-15 73.8658 -9.75406 -14.4177 -8.6586 1.0176 -1.7016 59.4604 -3.212 -8.59604 -4.5461 7.10543e-15 -8.88178e-16 79.8423 -5.51923 -6.59367 -2.506 0 0 73.1039 -4.70674 -7.195 -7.6901 0.6618 -3.9096 57.724 -14.4056 -8.86325 -3.2119 -7.10543e-15 0 75.4266 -14.2018 -18.3035 -1.924 0 0 71.1307 -12.7786 -19.3061 8.7379 -0.0029 0.0005 -0.483481 -0.758848 14.1932 2.66454e-15 -46.6676 0 1.6467 15.5148 -2.98392 0 -40.1476 4.44089e-16 0.282786 -9.40809 7.90748 1.77636e-15 -8.8846 14.2294 0.0001 -2.48481e-17 -0 -8.7379 0.0029 -0.0005 -7.41818 -2.57705 -24.1932 -1.77636e-15 -46.6676 0 -3.08893 17.0232 6.60925 0 -40.1476 0 3.94983 -7.72145 -7.86578 0 -8.8846 14.2294 4.96962e-17 4.96962e-17 -0 
-0.142227 96.5286 -1.17183 1.31439 -5.3256 2.4199 0 7.2397 -1.77636e-15 -1.18811 1.13788 -1.42138 0 16.546 -8.88178e-16 -2.19292 4.16134 -2.686 0 34.2149 0 2.78944 25.7115 1.77667 -8.88178e-16 6.2923 0 -0.863616 -18.7552 -0.490987 4.0639 26.6115 -1.1234 2.04019 -4.184 1.10629 14.1772 -2.84217e-14 0 -86.8419 21.2017 14.5771 26.1234 -3.55271e-15 -7.10543e-15 -0.287691 0.0494782 -19.515 27.7188 0 3.9968e-15 -2.1671 -28.1169 5.70814 2.2979 -0.4685 1.8313 77.4345 75.3062 -89.6782 5.2953 -3.55271e-15 -2.55351e-15 -13.655 2.43916 4.23129 3.0181 0 8.88178e-16 38.5402 5.09864 3.63093 9.3793 0.2991 2.5924 -7.74522 -1.73213 2.94703 4.3461 0 -1.11022e-16 -9.95202 0.0972639 2.05905 2.1666 -5.32907e-15 0 -12.1192 -0.25109 2.0032 9.4769 0.8376 0.2947 -7.1505 -4.50185 3.17298 4.772 0 0 -31.6887 -2.13649 7.83422 2.8722 0 0 -19.9275 -0.77975 6.4594 8.6586 1.0176 -1.7016 -15.3291 1.70804 4.48795 4.5461 2.66454e-15 0 -36.0019 -1.51088 4.64714 2.506 -7.10543e-15 0 -23.0802 -0.577587 4.02645 7.6901 0.6618 -3.9096 -12.9485 -9.4749 4.32013 3.2119 2.22045e-15 0 -35.3326 -3.70581 11.5997 1.924 7.10543e-15 -3.55271e-15 -25.0287 -1.82101 9.98808 -4.0677 26.6109 -1.1234 6.23621 -4.06759 1.53902 -14.1772 2.84217e-14 0 78.1718 2.75246 -12.8924 -26.1234 0 0 0.203934 0.0244971 13.6997 -27.7188 0 0 -12.2331 -9.49639 3.36099 -2.2979 -0.4684 1.8313 -80.7334 75.7767 111.058 -5.2953 0 3.55271e-15 15.3004 2.21205 -5.46139 -3.0181 -1.77636e-15 -3.55271e-15 -10.6114 3.2941 -16.0189 -9.3793 0.2991 2.5924 58.8722 -7.07581 -8.6488 -4.3461 0 0 78.8288 -8.3887 -10.5305 -2.1666 1.42109e-14 -1.77636e-15 81.0281 -8.82224 -9.93212 -9.4769 0.8376 0.2947 58.4456 -9.84027 -8.71158 -4.772 -7.10543e-15 8.88178e-16 77.7398 -10.7396 -13.4126 -2.8722 1.42109e-14 0 73.8658 -9.75406 -14.4177 -8.6586 1.0176 -1.7016 59.4604 -3.212 -8.59604 -4.5461 0 0 79.8423 -5.51923 -6.59367 -2.506 0 8.88178e-16 73.1039 -4.70674 -7.195 -7.6901 0.6618 -3.9096 57.724 -14.4056 -8.86325 -3.2119 -7.10543e-15 0 75.4266 -14.2018 -18.3035 -1.924 -1.42109e-14 -3.55271e-15 71.1307 -12.7786 -19.3061 8.7379 -0.0029 0.0005 -0.273092 -0.512475 14.1652 1.77636e-15 -46.6676 -1.77636e-15 1.55443 15.2959 -3.30839 0 -40.1476 2.66454e-15 0.303969 -9.34745 7.90201 -1.77636e-15 -8.8846 14.2294 0.0001 0 -3.18055e-15 -8.7379 0.0029 -0.0005 -7.21901 -2.12907 -24.312 -1.77636e-15 -46.6676 0 -2.93852 16.5766 6.33332 -3.55271e-15 -40.1476 4.44089e-16 3.91757 -7.56971 -7.88105 3.55271e-15 -8.8846 14.2294 9.93923e-17 0 -0 
-0.234501 96.5663 -1.0317 1.21728 -5.3675 2.75509 0 7.2397 0 -1.15732 1.10979 -1.4227 0 16.546 2.66454e-15 -2.17174 4.10487 -2.68741 0 34.2149 4.44089e-16 2.82981 25.624 1.91601 0 6.2923 1.42109e-14 -0.777707 -19.0968 0.410433 4.0639 26.6115 -1.1234 2.04079 -4.16294 1.10862 14.1772 0 1.77636e-15 -86.7576 21.2132 14.7098 26.1234 3.55271e-15 0 -0.293298 0.051484 -19.9123 27.7188 -3.55271e-15 -1.33227e-15 -2.12461 -28.1379 5.84249 2.2979 -0.4685 1.8313 77.4345 75.3062 -89.6782 5.2953 -3.55271e-15 -1.55431e-15 -13.655 2.43915 4.23129 3.0181 0 0 38.5402 5.09863 3.63092 9.3793 0.2991 2.5924 -7.74521 -1.73213 2.94702 4.3461 1.77636e-15 0 -9.95204 0.0972635 2.05905 2.1666 -3.55271e-15 -2.22045e-16 -12.1192 -0.251091 2.0032 9.4769 0.8376 0.2947 -7.15051 -4.50185 3.17298 4.772 3.55271e-15 -4.44089e-16 -31.6886 -2.13649 7.83421 2.8722 0 0 -19.9275 -0.77975 6.4594 8.6586 1.0176 -1.7016 -15.3291 1.70804 4.48795 4.5461 1.77636e-15 0 -36.0019 -1.51088 4.64714 2.506 0 0 -23.0802 -0.577588 4.02646 7.6901 0.6618 -3.9096 -12.9485 -9.4749 4.32013 3.2119 1.55431e-15 8.88178e-16 -35.3326 -3.70581 11.5997 1.924 -1.42109e-14 3.55271e-15 -25.0287 -1.82101 9.98808 -4.0677 26.6109 -1.1234 6.26099 -4.05376 1.52742 -14.1772 0 0 78.2449 2.74367 -13.0775 -26.1234 -7.10543e-15 -7.10543e-15 0.207913 0.0254753 13.9709 -27.7188 -7.10543e-15 0 -12.4276 -9.58179 3.19861 -2.2979 -0.4684 1.8313 -80.7334 75.7767 111.058 -5.2953 -1.42109e-14 0 15.3004 2.21205 -5.46139 -3.0181 0 -3.55271e-15 -10.6114 3.2941 -16.0189 -9.3793 0.2991 2.5924 58.8722 -7.07581 -8.6488 -4.3461 0 2.22045e-16 78.8288 -8.3887 -10.5305 -2.1666 1.42109e-14 1.77636e-15 81.0281 -8.82224 -9.93212 -9.4769 0.8376 0.2947 58.4456 -9.84027 -8.71158 -4.772 3.55271e-15 0 77.7398 -10.7396 -13.4126 -2.8722 0 -1.77636e-15 73.8658 -9.75406 -14.4177 -8.6586 1.0176 -1.7016 59.4604 -3.212 -8.59604 -4.5461 0 -8.88178e-16 79.8423 -5.51923 -6.59367 -2.506 1.42109e-14 0 73.1039 -4.70674 -7.195 -7.6901 0.6618 -3.9096 57.724 -14.4056 -8.86325 -3.2119 0 0 75.4266 -14.2018 -18.3035 -1.924 0 0 71.1307 -12.7786 -19.3061 8.7379 -0.0029 0.0005 -0.0519103 -0.346617 14.1436 -8.88178e-16 -46.6676 1.77636e-15 1.46788 15.1729 -3.62702 0 -40.1476 4.44089e-16 0.363578 -9.33059 7.90021 0 -8.8846 14.2294 0.0001 -2.48481e-17 -6.36111e-15 -8.7379 0.0029 -0.0005 -7.01275 -1.72655 -24.4219 0 -46.6676 0 -2.78936 16.1459 6.06979 -1.77636e-15 -40.1476 4.44089e-16 3.87226 -7.44259 -7.8966 0 -8.8846 14.2294 8.27607e-33 1.49089e-16 -3.18055e-15 
